<?xml version="1.0" encoding="UTF-8"?><svg id="Camada_1" xmlns="http://www.w3.org/2000/svg" viewBox="0 0 734.42 201.44"><defs><style>.cls-1{letter-spacing:-.03em;}.cls-1,.cls-2{font-family:VisbyCF-DemiBold, 'Visby CF';font-size:175.13px;font-weight:300;}.cls-2{letter-spacing:-.03em;}.cls-3{fill:#fff;}.cls-4{font-family:VistolSans-SemiBold, 'Vistol Sans';font-size:165px;font-weight:600;letter-spacing:-.03em;}.cls-5{opacity:.98;}</style></defs><text class="cls-5" transform="translate(224.29 151.59) rotate(.01) scale(1.26 1)"><tspan class="cls-1" x="0" y="0">Dor</tspan><tspan class="cls-4" x="276.71" y="0">i</tspan><tspan class="cls-2" x="312.51" y="0">c</tspan></text><g><path d="m103.52,166H3.98c-.96-2.42-2.76-4.84-2.77-7.27-.16-50.2-.12-100.41-.12-150.61,0-6.91.19-7.11,6.89-7.11,30.68,0,61.36-.04,92.05,0,40.31.06,75.47,29.98,81.12,68.97,6.04,41.65-17.8,80.13-57.25,91.93-6.61,1.98-13.58,2.75-20.38,4.08Zm-16.12-121.41c-12.93,0-25.85-.02-38.78,0-6.37.01-7.22.84-7.23,7.13-.02,21.03-.02,42.05,0,63.08,0,6.27,1,7.3,7.17,7.3,25.02.02,50.05.12,75.07-.02,22.68-.13,39.78-17.06,39.73-39.02-.05-21.6-17.22-38.3-39.67-38.46-12.1-.09-24.2-.02-36.29-.02Zm75.13,64.71c-11.16,14.65-26.1,19.72-44.09,19.45-33.66-.5-67.34-.15-101.01-.14-8.86,0-10.55,2.12-9.09,11.41.41.12.87.38,1.32.38,35.82-.04,71.67.66,107.47-.45,20.7-.64,35.69-12.45,45.39-30.65Zm.15-51.62c-9.32-19.7-28.9-31.61-51.78-31.67-30.99-.09-61.98-.02-92.98-.02-9.36,0-10.98,1.91-9.58,11.86,1.86,0,3.8,0,5.75,0,36.46,0,72.92,0,109.38.02,2.31,0,4.65.08,6.93.39,13.52,1.86,24.1,8.64,32.27,19.42Zm5.34-7.03c-.78-1.57-1.46-3.2-2.37-4.69-15.03-24.75-36.94-37.89-66-38.21-27.51-.31-55.02-.07-82.54-.06-8.52,0-10.74,2.99-8.41,11.75,1.86,0,3.83,0,5.79,0,31.99,0,63.97-.03,95.96.04,3.96,0,7.97.21,11.87.86,19.66,3.25,34.42,13.84,45.69,30.32ZM8.18,158.65c.82.16,1.3.34,1.77.34,30.99,0,61.99.68,92.95-.24,26.47-.79,46.96-13.51,61.36-35.79.83-1.29,1.45-2.73,2.41-4.55-.91.22-1.08.21-1.16.29-.35.34-.73.67-1.02,1.07-13.48,18.45-31.63,27.46-54.51,27.36-30.65-.14-61.31-.03-91.96-.03-9.43,0-10.87,1.65-9.84,11.56Zm9.71-113.53c-9.22-1.3-10.07-.62-10.07,7.48,0,21.34,0,42.67,0,64.01,0,1.75.15,3.5.22,5.18,9.44.81,9.84.44,9.84-8.47,0-9.43,0-18.86,0-28.28,0-13.21,0-26.42,0-39.92Zm6.69,76.69c9.72.72,10.08.4,10.08-8.13,0-21.16,0-42.32,0-63.48v-5.17c-9.36-1.09-10.08-.49-10.08,7.72,0,21.16,0,42.32,0,63.48,0,1.77,0,3.54,0,5.58Z"/><path class="cls-3" d="m103.52,166c6.8-1.33,13.77-2.11,20.38-4.08,39.45-11.8,63.29-50.28,57.25-91.93C175.49,30.99,140.34,1.07,100.03,1.01c-30.68-.05-61.36-.01-92.05,0-6.7,0-6.89.2-6.89,7.11,0,50.2-.04,100.41.12,150.61,0,2.43,1.8,4.85,2.77,7.27H0c0-55.31,0-110.62,0-166h183v166h-79.48Z"/><path class="cls-3" d="m87.4,44.59c12.1,0,24.2-.07,36.29.02,22.45.16,39.63,16.86,39.67,38.46.05,21.97-17.06,38.9-39.73,39.02-25.02.14-50.05.04-75.07.02-6.17,0-7.16-1.03-7.17-7.3-.02-21.03-.02-42.05,0-63.08,0-6.3.86-7.12,7.23-7.13,12.93-.02,25.85,0,38.78,0Z"/><path class="cls-3" d="m162.53,109.3c-9.71,18.19-24.7,30.01-45.39,30.65-35.79,1.11-71.64.41-107.47.45-.46,0-.92-.25-1.32-.38-1.46-9.29.23-11.4,9.09-11.41,33.67,0,67.35-.36,101.01.14,17.99.27,32.93-4.8,44.09-19.45Z"/><path class="cls-3" d="m162.68,57.68c-8.17-10.77-18.75-17.55-32.27-19.42-2.29-.31-4.62-.39-6.93-.39-36.46-.02-72.92-.02-109.38-.02-1.94,0-3.89,0-5.75,0-1.41-9.95.22-11.86,9.58-11.86,30.99,0,61.98-.07,92.98.02,22.87.06,42.46,11.97,51.78,31.67Z"/><path class="cls-3" d="m168.02,50.65c-11.27-16.48-26.03-27.07-45.69-30.32-3.9-.64-7.91-.85-11.87-.86-31.99-.07-63.97-.04-95.96-.04-1.97,0-3.93,0-5.79,0-2.33-8.77-.11-11.75,8.41-11.75,27.51,0,55.03-.24,82.54.06,29.06.32,50.97,13.47,66,38.21.91,1.49,1.59,3.13,2.37,4.69Z"/><path class="cls-3" d="m8.18,158.65c-1.04-9.91.41-11.56,9.84-11.56,30.65,0,61.31-.1,91.96.03,22.88.1,41.03-8.91,54.51-27.36.29-.39.66-.73,1.02-1.07.08-.08.25-.07,1.16-.29-.96,1.82-1.57,3.26-2.41,4.55-14.4,22.28-34.89,35-61.36,35.79-30.96.92-61.97.24-92.95.24-.47,0-.95-.18-1.77-.34Z"/><path class="cls-3" d="m17.89,45.12c0,13.5,0,26.71,0,39.92,0,9.43,0,18.86,0,28.28,0,8.91-.4,9.28-9.84,8.47-.07-1.68-.22-3.43-.22-5.18-.02-21.34-.01-42.67,0-64.01,0-8.11.85-8.78,10.07-7.48Z"/><path class="cls-3" d="m24.58,121.82c0-2.04,0-3.81,0-5.58,0-21.16,0-42.32,0-63.48,0-8.21.72-8.81,10.08-7.72v5.17c0,21.16,0,42.32,0,63.48,0,8.53-.36,8.85-10.08,8.13Z"/></g></svg>